<svg width="32" height="32" viewBox="0 0 32 32" fill="none" xmlns="http://www.w3.org/2000/svg">
<path fill-rule="evenodd" clip-rule="evenodd" d="M25.4001 3.50323C28.9035 6.38048 31.0308 10.6335 31.0308 15.5121C31.0308 24.0188 24.1489 31.0238 15.5151 31.0238C14.8893 31.0238 14.1386 30.8985 13.5131 30.8985C16.1408 29.7725 18.6433 28.1465 20.6452 26.1451C24.5242 22.2672 26.7764 17.0135 26.7764 11.1341C26.7764 8.50705 26.2759 5.88026 25.3999 3.50356L25.4001 3.50323Z" fill="#5A5A5A"/>
<path fill-rule="evenodd" clip-rule="evenodd" d="M15.5154 0C18.7686 0 21.7719 1.00071 24.2744 2.62701C25.5256 5.25402 26.1514 8.13097 26.1514 11.1338C26.1514 16.763 23.774 21.8915 20.1452 25.6442C17.893 27.8959 15.1403 29.5222 12.137 30.6479C5.12979 29.0216 0 22.8917 0 15.5118C0 6.8801 7.00719 0.000149258 15.5157 0.000149258L15.5154 0ZM23.7737 3.12741C21.2712 1.50111 18.5185 0.625585 15.5154 0.625585C7.38219 0.625585 0.625451 7.25552 0.625451 15.5117C0.625451 22.3918 5.38009 28.2711 12.0117 29.8972C14.8897 28.8965 17.5171 27.2702 19.6442 25.1438C23.3978 21.516 25.3998 16.637 25.5251 11.3839V10.8835C25.3998 8.25649 24.8993 5.6297 23.7734 3.12729L23.7737 3.12741Z" fill="#5A5A5A"/>
<path fill-rule="evenodd" clip-rule="evenodd" d="M10.8855 10.008C10.8855 9.63261 10.8855 9.25747 10.7603 9.00731V8.38171C8.75833 9.25746 7.00661 10.5084 5.37989 12.0095C3.75317 13.6358 2.37697 15.7622 1.62622 18.1391C2.37697 16.5128 3.37794 15.1369 4.62914 13.886C6.38086 12.1347 8.50811 10.7586 10.8856 10.008L10.8855 10.008Z" fill="#5A5A5A"/>
<path fill-rule="evenodd" clip-rule="evenodd" d="M9.385 2.62726C4.63036 4.87892 1.37677 9.75751 1.37677 15.5116V16.6376C2.25274 14.7611 3.37872 13.0098 4.88021 11.5088C6.50694 9.88248 8.50896 8.50664 10.7611 7.75609C10.5109 6.00482 10.0104 4.25356 9.38463 2.62726H9.385Z" fill="#5A5A5A"/>
<path fill-rule="evenodd" clip-rule="evenodd" d="M11.5113 8.1313V8.88205C11.5113 9.1323 11.5113 9.38255 11.6366 9.75802C13.0131 9.25753 14.3893 9.00728 16.016 9.00728C16.016 8.63176 15.8907 8.25653 15.8907 8.0063V7.25555C14.3892 7.38082 12.8878 7.63107 11.5113 8.13153V8.1313Z" fill="#5A5A5A"/>
<path fill-rule="evenodd" clip-rule="evenodd" d="M14.3899 1.25116C12.8884 1.3764 11.387 1.75152 10.1357 2.37714C10.7614 4.00344 11.1367 5.7547 11.3869 7.50597C12.7634 7.0056 14.2649 6.63022 15.7663 6.63022C15.516 4.75369 15.1405 3.00243 14.3898 1.25123L14.3899 1.25116Z" fill="#5A5A5A"/>
<path fill-rule="evenodd" clip-rule="evenodd" d="M16.6411 7.25555V7.88132V9.00759C17.8923 9.00759 19.1436 9.13286 20.2699 9.3831V8.63236C20.2699 8.38211 20.1446 8.00659 20.1446 7.63138C19.0183 7.38114 18.0173 7.25587 16.8914 7.25587H16.6411L16.6411 7.25555Z" fill="#5A5A5A"/>
<path fill-rule="evenodd" clip-rule="evenodd" d="M18.5183 1.62627C17.5174 1.37609 16.5164 1.25085 15.5154 1.25085H15.1399C15.7657 3.00212 16.2662 4.75339 16.5164 6.50465H16.8919C17.8929 6.50465 19.0191 6.62989 20.0201 6.88007C19.7699 5.00354 19.2694 3.25227 18.5186 1.62627H18.5183Z" fill="#5A5A5A"/>
<path fill-rule="evenodd" clip-rule="evenodd" d="M20.8958 7.75574C20.8958 8.00598 21.0211 8.3815 21.0211 8.63171V9.50768C21.7718 9.75793 22.6478 10.0082 23.3986 10.3837C23.7741 10.5089 24.1493 10.7592 24.5248 11.0094C24.6501 11.0094 24.7751 11.0094 24.7751 11.1347V10.8844V9.38294C24.6498 9.25767 24.5248 9.25767 24.5248 9.1327C24.1493 9.00743 23.6489 8.75718 23.2736 8.6322C22.5229 8.25669 21.7721 8.00644 20.8962 7.75623L20.8958 7.75574Z" fill="#5A5A5A"/>
<path fill-rule="evenodd" clip-rule="evenodd" d="M23.273 3.50261C22.0218 2.75206 20.7705 2.12647 19.394 1.75134C20.1448 3.50261 20.5203 5.25387 20.7705 7.00514C21.7715 7.25532 22.6476 7.5055 23.6485 8.00585C23.8988 8.13109 24.2743 8.25603 24.6495 8.50622C24.3993 6.75495 23.8988 5.12865 23.273 3.50258V3.50261Z" fill="#5A5A5A"/>
</svg>
