<svg width="87" height="40" viewBox="0 0 87 40" fill="none" xmlns="http://www.w3.org/2000/svg">
<path d="M6.66406 19.9145C6.66406 27.1441 12.5698 33.0264 19.8303 33.0264H32.257C32.9489 33.0264 33.5055 32.3477 33.5055 31.7867V7.51082C33.5055 5.90199 34.8192 4.59373 36.4354 4.59373C37.4703 4.59373 38.4356 5.14082 38.953 6.02221C39.0158 6.12804 42.7777 12.5875 46.7599 19.4263C50.5641 25.9579 54.4974 32.712 54.5632 32.8238C54.7383 33.1214 55.0812 33.3132 55.4374 33.3132C56.0025 33.3132 56.4614 32.8557 56.4614 32.293V7.51082C56.4614 5.90199 57.7763 4.59373 59.3913 4.59373C60.4267 4.59373 61.3914 5.14082 61.9101 6.02221C61.9716 6.12804 65.7305 12.5881 69.7103 19.4263C73.5114 25.9567 77.4412 32.7096 77.5088 32.8238C77.682 33.1214 78.0262 33.3132 78.383 33.3132C78.9475 33.3132 79.4063 32.8557 79.4063 32.293V0.163362H74.6452V19.2887C74.6452 19.2887 65.771 4.07728 65.483 3.5885C64.188 1.38322 61.7308 -0.00976562 59.1172 -0.00976562C55.0215 -0.00976562 51.7003 3.29872 51.7003 7.37736V19.2887C51.7003 19.2887 42.826 4.07728 42.538 3.5885C41.243 1.38322 38.7858 -0.00976562 36.1716 -0.00976562C32.0765 -0.00976562 28.7553 3.29872 28.7553 7.37736V26.9499C28.7572 27.6624 28.2192 28.2828 27.4374 28.2847H19.8835C15.2419 28.2847 11.4782 24.5373 11.4782 19.9139C11.4782 15.2912 15.2419 11.5444 19.8835 11.5444H26.21V6.80198H19.8303C12.5698 6.80198 6.66406 12.6843 6.66406 19.9145Z" fill="#5A5A5A"/>
<path d="M81.3099 0.154297V32.2839C81.3099 33.8927 79.9949 35.2016 78.38 35.2016C77.3445 35.2016 76.3798 34.6539 75.8612 33.7725C75.799 33.6667 72.0402 27.2078 68.0609 20.3684C64.2598 13.8386 60.3301 7.08574 60.2625 6.97151C60.0892 6.67391 59.745 6.48152 59.3882 6.48152C58.8232 6.48152 58.3649 6.93962 58.3649 7.50176V32.2839C58.3649 33.8927 57.05 35.2016 55.435 35.2016C54.3996 35.2016 53.4348 34.6539 52.9162 33.7725C52.854 33.6673 49.0928 27.2078 45.1099 20.369C41.3064 13.8374 37.373 7.08273 37.3066 6.97151C37.1315 6.67391 36.7886 6.48152 36.4324 6.48152C35.8673 6.48152 35.4073 6.93962 35.4073 7.50176V31.7783C35.4073 33.449 33.9336 34.9142 32.254 34.9142H19.8279C11.5181 34.9142 4.75685 28.1812 4.75685 19.9055C4.75685 11.6291 11.5181 4.8961 19.8279 4.8961H26.2076V0.154297H19.8333C8.87916 0.154297 0 8.99698 0 19.9055C0 30.8139 8.87916 39.6566 19.8333 39.6566H32.379C37.1309 39.6596 40.1864 36.8862 40.1804 31.7717V20.5067C40.1804 20.5067 49.1187 35.8251 49.3421 36.2062C50.6383 38.4115 53.0955 39.8051 55.7091 39.8051C59.8048 39.8051 63.126 36.496 63.126 32.4179V20.5067C63.126 20.5067 71.9997 35.7174 72.2877 36.2062C73.5833 38.4115 76.0405 39.8051 78.6541 39.8051C82.7497 39.8051 86.071 36.496 86.071 32.4179V0.154297H81.3099Z" fill="#5A5A5A"/>
</svg>
