<svg width="115" height="31" viewBox="0 0 115 31" fill="none" xmlns="http://www.w3.org/2000/svg">
<path d="M11.3293 3.74767H13.8241C15.3433 3.52356 16.8949 3.7206 18.3102 4.31738C20.0858 5.38703 21.3737 7.10905 21.8992 9.11611C22.2712 10.1679 22.2712 10.1679 23.1684 9.79538H23.8687V1.46882H0.387398V2.93692H1.35028C1.76871 2.93402 2.18248 3.02502 2.56117 3.20324C2.93987 3.38146 3.27388 3.64236 3.53867 3.96679C4.4359 5.41298 4.58909 7.03447 4.58909 15.4706C4.58909 24.4326 4.39213 26.6238 3.53867 27.7413C3.32797 28.0286 3.05518 28.2645 2.74066 28.4315C2.42615 28.5984 2.07803 28.6921 1.72231 28.7054C0.387398 28.9465 0.387398 28.9245 0.387398 29.5162C0.313576 29.714 0.313576 29.9319 0.387398 30.1297H15.2027C15.3008 29.9362 15.3519 29.7222 15.3519 29.5052C15.3519 29.2882 15.3008 29.0743 15.2027 28.8807C14.8439 28.7808 14.4782 28.7075 14.1085 28.6616C13.7087 28.614 13.3134 28.5334 12.9268 28.4206C12.3732 28.0159 11.9346 27.4735 11.6544 26.8471C11.3743 26.2207 11.2622 25.532 11.3293 24.8489C11.1105 23.4027 11.001 20.7514 11.001 18.5602V16.8291H11.8764C12.967 16.7957 14.0569 16.9137 15.1152 17.1797C15.6222 17.4934 16.0537 17.9153 16.3791 18.4153C16.7044 18.9153 16.9155 19.481 16.9972 20.0721L17.1942 20.7514H18.5291V11.0444H17.3036L17.1066 11.9866C17.0238 12.5911 16.8004 13.1676 16.4546 13.67C16.1087 14.1723 15.6499 14.5864 15.1152 14.879C14.5973 15.0333 14.0517 15.0707 13.5177 14.9885H11.001V12.622C11.001 10.1679 11.1323 4.99665 11.2199 4.18591L11.3293 3.74767ZM113.745 21.1239C112.711 19.4568 111.098 18.2316 109.216 17.6837C107.773 17.2321 106.439 16.486 105.298 15.4925C105.042 15.2439 104.85 14.9363 104.739 14.5964C104.628 14.2564 104.603 13.8946 104.664 13.5423C104.665 12.8514 104.941 12.1894 105.43 11.7017C105.761 11.3543 106.18 11.1036 106.643 10.9762C107.105 10.8488 107.594 10.8497 108.056 10.9786C109.012 11.2516 109.877 11.7787 110.559 12.5039C111.241 13.2291 111.715 14.1255 111.929 15.0981C112.279 16.0841 112.323 16.0841 112.958 15.8212L113.352 15.6678V10.2117L113.067 10.0802C110.913 9.32258 108.627 9.00953 106.349 9.15993C104.387 9.20971 102.514 9.99112 101.097 11.3511C100.454 11.9535 99.9507 12.6892 99.6218 13.5067C99.2929 14.3243 99.1465 15.204 99.1928 16.0841C99.2051 17.4298 99.7386 18.7181 100.681 19.6777C101.722 20.7032 103 21.4558 104.401 21.8689C107.793 23.2055 108.778 24.0601 108.778 25.6158C108.792 26.2719 108.584 26.9134 108.186 27.4351C107.788 27.9567 107.225 28.3274 106.589 28.4863C105.825 28.6544 105.034 28.6544 104.27 28.4863C103.269 28.0975 102.376 27.4751 101.664 26.671C100.953 25.8668 100.443 24.9041 100.178 23.8629L99.8931 23.1617H99.4991C99.3109 23.1757 99.1261 23.2201 98.952 23.2932H98.7332V29.5162H99.1052C100.584 30.0086 102.109 30.3464 103.657 30.5241H105.845C106.794 30.5939 107.749 30.505 108.668 30.2612C109.836 30.0454 110.927 29.5274 111.834 28.7585C112.74 27.9897 113.429 26.9969 113.833 25.8788C114.094 25.2542 114.228 24.5838 114.227 23.9067C114.313 22.9529 114.147 21.9931 113.745 21.1239ZM93.131 9.79538C91.8196 9.24409 90.4066 8.97667 88.9848 9.01066C87.563 9.04465 86.1644 9.37927 84.8808 9.99259C83.6742 10.5835 82.6048 11.4212 81.7417 12.4516C80.8785 13.4819 80.2406 14.6821 79.8694 15.9746C79.396 17.3845 79.1955 18.8718 79.2785 20.357C79.2628 21.165 79.3288 21.9725 79.4755 22.7673C79.8289 24.7214 80.771 26.5204 82.1754 27.9227C83.5798 29.325 85.3792 30.2634 87.3317 30.6118C88.6033 30.7722 89.8899 30.7722 91.1614 30.6118C92.4809 30.3789 93.7436 29.8955 94.8817 29.1875C95.823 28.6591 96.6197 27.9065 97.2013 26.9963C97.164 26.8535 97.0982 26.7197 97.008 26.603C96.9177 26.4862 96.8049 26.389 96.6761 26.317C96.4264 26.4076 96.1906 26.533 95.9758 26.6895C94.8874 27.4078 93.6021 27.7678 92.2994 27.7194C91.4347 27.7779 90.5679 27.6431 89.7617 27.3248C88.9555 27.0064 88.2301 26.5125 87.6381 25.8788C87.1802 25.4529 86.8022 24.9482 86.522 24.3888C85.842 23.0266 85.4756 21.529 85.4497 20.0064V19.1518H97.5734V18.7136C97.6001 18.2757 97.6001 17.8367 97.5734 17.3988C97.569 15.8516 97.1557 14.3332 96.3755 12.9977C95.5952 11.6622 94.4758 10.5574 93.131 9.79538ZM87.0254 17.3769H85.4935V16.0841C85.9968 12.7754 87.2442 10.8033 88.7761 10.8033C90.3079 10.8033 90.9645 12.7535 91.2489 16.3252V17.3331H89.9359L87.0254 17.3769ZM55.5565 9.07228C54.8003 9.04292 54.0486 9.20098 53.3681 9.53243C51.889 10.2516 50.6944 11.4478 49.9761 12.9288L49.6916 13.4547V9.07228H49.5822C49.3196 9.07228 41.2226 10.6938 40.96 10.8033C40.6974 10.9129 40.7849 10.9348 40.7849 11.3292C40.7849 11.7236 40.7849 11.7894 40.96 11.8113L41.8134 11.9866C42.0525 11.9924 42.287 12.0527 42.4994 12.1628C42.7117 12.2729 42.8962 12.4299 43.0389 12.622C43.586 13.3451 43.6954 14.616 43.6954 20.0283C43.8035 22.4648 43.701 24.9061 43.3891 27.325C43.3156 27.6897 43.1309 28.0226 42.8605 28.2777C42.59 28.5328 42.2471 28.6976 41.8791 28.7493L41.135 28.9026H40.8505V29.5162C40.7712 29.7205 40.7712 29.9473 40.8505 30.1516H53.0836V29.5162C53.126 29.3065 53.126 29.0904 53.0836 28.8807C52.3471 28.852 51.6146 28.7566 50.8952 28.5959C50.5035 28.3907 50.183 28.0715 49.9759 27.6804C49.7689 27.2892 49.685 26.8445 49.7354 26.4047C49.5603 25.1338 49.4728 21.4087 49.5165 18.5602C49.5603 15.7116 49.5165 15.5363 49.7573 15.3391C50.4895 14.7769 51.3957 14.49 52.3177 14.5284C53.1867 14.5473 54.04 14.7647 54.8124 15.1638C55.0802 15.3127 55.3675 15.4233 55.6659 15.4925C55.6659 15.4925 57.8543 10.1898 57.8543 9.94876C57.5742 9.62292 57.2174 9.37213 56.8162 9.2191C56.415 9.06606 55.9821 9.0156 55.5565 9.07228ZM40.8068 18.2753C40.7304 16.7095 40.2814 15.1846 39.4973 13.8277C38.7131 12.4708 37.6165 11.3212 36.2987 10.4747C34.7327 9.62873 32.9904 9.16231 31.2117 9.11284C29.4331 9.06337 27.6676 9.43223 26.0571 10.1898C23.7801 11.3921 22.0608 13.4358 21.2645 15.8869C20.4421 18.6312 20.4421 21.5568 21.2645 24.3011C21.6957 25.8009 22.5016 27.1659 23.6061 28.2672C24.9817 29.6112 26.7555 30.4723 28.6613 30.7213C29.8846 30.8238 31.1144 30.8238 32.3377 30.7213C32.7879 30.6528 33.2337 30.5576 33.6727 30.4365C35.4539 29.9376 37.0564 28.941 38.2927 27.5634C39.529 26.1859 40.3479 24.4843 40.6536 22.6577C40.8721 21.2076 40.9235 19.7372 40.8068 18.2753ZM31.7031 29.2313C29.5147 29.8887 27.8735 27.7632 27.3264 23.2932C27.1254 20.9529 27.1254 18.5997 27.3264 16.2594C27.764 12.6658 28.8801 10.8472 30.6089 10.8472C30.9577 10.8255 31.3066 10.8878 31.6264 11.0289C31.9462 11.1699 32.2277 11.3856 32.4472 11.6579C33.9134 13.126 34.6355 16.0403 34.6355 20.4227C34.8176 22.9029 34.4283 25.3918 33.4976 27.6975C33.0866 28.3699 32.4508 28.8746 31.7031 29.1218V29.2313ZM71.094 9.51052C70.4765 9.43096 69.8513 9.43096 69.2338 9.51052C68.0485 9.50951 66.8768 9.76358 65.7981 10.2555L65.1197 10.5404V5.78548C65.2382 4.1808 65.2382 2.56953 65.1197 0.964844C64.8571 0.964844 56.4975 2.56442 56.3662 2.63016C56.3016 2.79193 56.3016 2.97235 56.3662 3.13413C56.3662 3.59428 56.3662 3.57237 57.3509 3.79149C57.6274 3.85358 57.893 3.95699 58.1388 4.09826C58.5659 4.50047 58.8502 5.03136 58.9485 5.61019C59.1976 7.27774 59.2783 8.9662 59.1892 10.6499V29.8887L59.78 30.0201C60.6554 30.2174 63.1283 30.6337 63.938 30.7213C65.5548 30.8501 67.1793 30.8501 68.7962 30.7213C70.5908 30.5378 72.3014 29.8674 73.7436 28.7824C75.1859 27.6974 76.3051 26.2389 76.9807 24.5641C77.3835 23.4891 77.6625 22.3717 77.8123 21.2334C77.9426 19.6916 77.8911 18.1398 77.6591 16.61C77.4243 14.8952 76.6685 13.2942 75.494 12.0242C74.3196 10.7542 72.7835 9.87662 71.094 9.51052ZM65.3604 28.8588C65.3604 28.574 65.1416 18.9765 65.1853 15.1419V12.14L65.82 11.9866C66.2482 11.9251 66.6829 11.9251 67.1111 11.9866C67.5847 11.9384 68.061 12.0461 68.4679 12.2933C69.2852 12.8581 69.9638 13.6011 70.4528 14.4665C70.9418 15.3318 71.2283 16.297 71.2909 17.2893C71.4503 18.8849 71.4503 20.4924 71.2909 22.088C71.1599 24.4071 70.2675 26.6179 68.7524 28.3767C68.3224 28.7857 67.7823 29.0599 67.1986 29.1656C66.757 29.2425 66.3054 29.2425 65.8637 29.1656C65.4479 29.1656 65.4479 29.0341 65.4479 28.8588H65.3604Z" fill="#5A5A5A"/>
</svg>
