<svg width="101" height="36" viewBox="0 0 101 36" fill="none" xmlns="http://www.w3.org/2000/svg">
<path d="M0.9375 8.86767H5.32758V27.3012H0.9375V34.6025H24.4267V27.3012H19.9914V8.86767H24.4267V0.980469H0.9375V8.86767Z" fill="#5A5A5A"/>
<path d="M60.5881 27.2986V17.6086C60.5881 11.4341 56.0622 9.18057 50.4502 9.18057C46.4674 9.18057 43.4351 10.2622 40.8101 13.2819C40.629 13.5073 40.4027 13.7777 40.1312 14.003V8.91016H25.6484V16.2565H28.9523V27.2986H25.6484V34.645H44.0234V27.2986H40.5385V20.9438C40.5385 18.2396 42.5752 16.2565 45.2907 16.2565C47.4178 16.2565 49.0924 17.2931 49.0924 19.5917V27.2535H45.698V34.5999H63.6657V27.3887C63.6657 27.3437 63.6204 27.2986 63.6204 27.2535H60.5881V27.2986Z" fill="#5A5A5A"/>
<path d="M92.9021 25.1389H83.3525H83.0357C83.0357 27.8431 81.0443 29.105 78.8266 29.105C74.5723 29.105 74.2103 25.5445 74.2103 22.1643V22.0741C74.2103 18.6939 74.5271 15.1334 78.8266 15.1334C82.1758 15.1334 82.7641 18.0179 82.8547 20.7671L92.7663 19.6854C91.7253 9.63488 81.7685 9.00391 79.2792 9.00391C78.9172 9.00391 78.7361 9.00391 78.7361 9.00391C70.5443 9.00391 62.4883 13.0151 62.4883 22.1192C62.4883 24.0572 62.8504 25.7698 63.5292 27.2571H63.5745V27.3924C66.0185 32.8007 72.3547 35.2345 78.7361 35.2345C83.9409 35.2345 91.2275 33.9725 92.8568 25.9952L92.9021 25.1389Z" fill="#5A5A5A"/>
<path d="M96.2966 34.7342C98.5962 34.7342 100.46 32.8778 100.46 30.5878C100.46 28.2978 98.5962 26.4414 96.2966 26.4414C93.997 26.4414 92.1328 28.2978 92.1328 30.5878C92.1328 32.8778 93.997 34.7342 96.2966 34.7342Z" fill="#5A5A5A"/>
</svg>
