<svg width="118" height="43" viewBox="0 0 118 43" fill="none" xmlns="http://www.w3.org/2000/svg">
<path fill-rule="evenodd" clip-rule="evenodd" d="M74.0024 35.6784C74.511 35.8068 75.0666 36.2645 75.2915 36.7382C75.8191 37.8537 75.2895 39.1394 74.1303 39.5543C73.7776 39.6797 73.135 39.6926 72.7703 39.5802C72.1478 39.3891 71.6122 38.8567 71.4253 38.2448C71.3483 37.99 71.3314 37.8397 71.3473 37.5163C71.3643 37.1611 71.3893 37.0646 71.5362 36.766C71.9869 35.8595 72.9822 35.4197 74.0024 35.6784ZM106.301 35.1709C106.565 35.2376 106.722 35.3261 106.959 35.5441C107.188 35.754 107.32 35.9779 107.384 36.2655L107.427 36.4536H105.717C103.789 36.4536 103.943 36.4914 104.107 36.0565C104.388 35.3072 105.33 34.9271 106.301 35.1709ZM51.274 37.6308V42.7297H53.1506H55.0282V37.6308V32.5319H53.1506H51.274V37.6308ZM104.799 32.3259C101.939 32.8264 100.068 35.3082 100.344 38.2378C100.443 39.2717 100.712 40.0807 101.212 40.83C101.925 41.8968 102.995 42.5844 104.425 42.8979C105.041 43.0322 106.634 43.0193 107.298 42.875C108.332 42.6511 109.246 42.1724 109.909 41.5127C110.217 41.2042 110.721 40.5385 110.676 40.4967C110.665 40.4867 109.949 40.2071 109.081 39.8747L107.506 39.2707L107.275 39.5056C106.988 39.7961 106.752 39.9354 106.396 40.028C105.292 40.3136 104.192 39.7384 104.012 38.7831L103.973 38.5771L107.501 38.5652L111.029 38.5542L111.026 37.6994C111.024 37.0606 111.002 36.7481 110.94 36.4566C110.693 35.3062 110.236 34.4305 109.502 33.7081C108.803 33.0155 108.015 32.6025 106.951 32.3677C106.481 32.2632 105.287 32.2413 104.799 32.3259ZM96.2697 32.3259C94.6159 32.5866 93.2659 33.4673 92.4605 34.8156C92.2187 35.2197 92.0298 35.6903 91.8839 36.2555C91.764 36.7123 91.754 36.8247 91.753 37.6069C91.752 38.5313 91.794 38.8408 92.0108 39.5065C92.5744 41.244 94.0004 42.4859 95.899 42.8969C96.2057 42.9635 96.4875 42.9824 97.173 42.9824C98.1553 42.9814 98.5361 42.9148 99.2575 42.6222L99.6293 42.471L99.6413 40.7574L99.6533 39.0438L99.3395 39.2259C98.8858 39.4916 98.5091 39.5981 97.9365 39.626C97.3479 39.6538 97.0302 39.5961 96.5995 39.3812C96.2067 39.1841 95.897 38.8647 95.6991 38.4488C95.5612 38.1602 95.5512 38.1044 95.5522 37.6537C95.5532 37.2576 95.5732 37.1203 95.6601 36.9034C95.9659 36.1401 96.6874 35.6834 97.6597 35.6356C98.3502 35.6028 98.631 35.6784 99.6173 36.167C99.6363 36.1769 99.6522 35.4167 99.6522 34.4783V32.7717L99.3565 32.6543C98.4541 32.295 97.269 32.1687 96.2697 32.3259ZM86.3759 32.3289C85.7194 32.4642 84.9599 32.9309 84.5672 33.4434L84.4063 33.6524V33.0911V32.5309L82.5177 32.5428L80.6296 32.5548L80.6176 37.6427L80.6056 42.7297H82.5067H84.4063L84.4073 39.8339C84.4073 36.773 84.4123 36.7083 84.6272 36.2924C84.829 35.9033 85.2188 35.6724 85.6764 35.6704C86.0761 35.6684 86.299 35.752 86.5428 35.9928C86.9455 36.3929 86.9295 36.2446 86.9445 39.6956L86.9585 42.7297H88.8361H90.7127L90.6968 39.0259C90.6818 35.3649 90.6798 35.3192 90.5779 34.9311C90.5209 34.7151 90.371 34.326 90.2431 34.0663C90.0512 33.6733 89.9513 33.533 89.6525 33.2354C89.2628 32.8473 88.934 32.6304 88.5054 32.4801C87.8598 32.2552 87.0264 32.1955 86.3759 32.3289ZM71.825 32.2881C71.2204 32.3717 70.3151 32.7289 69.8404 33.0712C68.7532 33.8554 67.9998 35.0923 67.737 36.5232C67.632 37.0924 67.635 38.2298 67.742 38.7781C67.9238 39.7086 68.2776 40.5255 68.7912 41.1982C69.4707 42.0888 70.435 42.7008 71.5152 42.9227C72.0998 43.0431 73.0841 43.0203 73.5867 42.872C74.1603 42.7048 74.634 42.4391 75.0427 42.055L75.4164 41.7047V42.2172V42.7297H77.271H79.1237V37.6308V32.5319H77.271H75.4164V33.0593V33.5867L75.1736 33.33C74.6889 32.8145 73.9954 32.4612 73.206 32.3239C72.8393 32.2592 72.1548 32.2423 71.825 32.2881ZM62.3489 32.3219C61.5705 32.4881 60.9339 32.8692 60.5212 33.4155L60.3104 33.6942V33.113V32.5319H58.4337H56.5571V37.6308V42.7297H58.4337H60.3104V39.9494C60.3114 38.3522 60.3294 37.0516 60.3563 36.8924C60.4163 36.5242 60.6411 36.0794 60.845 35.9252C61.3856 35.5142 62.242 35.6117 62.5987 36.1232C62.8805 36.5282 62.8755 36.4755 62.8945 39.7414L62.9105 42.7297H64.7841H66.6588V39.3832C66.6588 35.8326 66.6398 35.4256 66.4449 34.7539C66.257 34.1121 66.0012 33.6743 65.5476 33.2205C65.1059 32.7797 64.7322 32.5568 64.1556 32.3926C63.7059 32.2652 62.7826 32.2284 62.3489 32.3219ZM47.1729 27.6857C45.4602 28.028 44.334 29.1097 43.9033 30.8303C43.8404 31.085 43.7984 31.4402 43.7804 31.8741L43.7544 32.5319H43.0659H42.3764L42.3884 34.0424L42.4004 35.554L43.0839 35.5669L43.7674 35.5789V39.1543V42.7297H45.6211H47.4747V39.1543V35.5779L48.7368 35.5669L49.9999 35.554L50.0119 34.0424L50.0239 32.5319H48.7468H47.4687L47.5007 32.1975C47.5726 31.4552 47.8684 31.0422 48.458 30.8641C48.8557 30.7437 49.4253 30.7646 49.857 30.9138C50.0069 30.9666 50.1378 31.0094 50.1458 31.0094C50.1548 31.0094 50.1628 30.3148 50.1628 29.466V27.9236L49.896 27.824C49.4473 27.6559 48.9976 27.5942 48.2701 27.5982C47.8135 27.6011 47.4527 27.629 47.1729 27.6857ZM52.5151 27.5882C51.229 28.0121 50.6614 29.461 51.3339 30.6034C51.5098 30.9019 51.9295 31.2711 52.2822 31.4373C52.58 31.5786 52.622 31.5855 53.1506 31.5855C53.6822 31.5855 53.7222 31.5786 54.023 31.4363C54.4277 31.2452 54.8683 30.8143 55.0482 30.4342C55.5379 29.3973 55.0932 28.2042 54.028 27.6997C53.7122 27.5514 53.6272 27.5315 53.2275 27.5176C52.8798 27.5046 52.7219 27.5205 52.5151 27.5882ZM105.19 17.8422C103.337 18.073 101.875 19.3925 101.471 21.1967C101.36 21.6972 101.372 22.5799 101.497 23.0864C101.884 24.6467 103.098 25.8159 104.667 26.1364C104.866 26.1772 105.25 26.209 105.537 26.209C106.749 26.209 107.7 25.8179 108.553 24.9681C109.412 24.1133 109.8 23.1729 109.8 21.946C109.8 20.4394 109.111 19.1905 107.856 18.4213C107.113 17.9656 106.052 17.7347 105.19 17.8422ZM91.6361 13.4C92.8292 13.613 93.8125 14.4001 94.2582 15.4967C94.468 16.0172 94.526 16.3256 94.526 16.9346C94.526 17.6063 94.449 17.9666 94.1862 18.5268C93.7455 19.4662 92.9321 20.1458 91.9139 20.4255C91.4962 20.5409 90.4389 20.5399 90.0133 20.4245C88.7802 20.0891 87.8378 19.1338 87.5071 17.881C87.3692 17.3635 87.3692 16.5038 87.5061 15.9943C87.9328 14.3981 89.2868 13.3533 90.9406 13.3413C91.1324 13.3393 91.4442 13.3662 91.6361 13.4ZM71.2934 13.4C72.6874 13.6478 73.7586 14.6728 74.1023 16.0868C74.2153 16.5505 74.2033 17.4033 74.0774 17.881C73.7476 19.1318 72.8043 20.0891 71.5702 20.4245C71.1455 20.5399 70.0883 20.5409 69.6706 20.4255C68.6523 20.1458 67.8389 19.4662 67.3982 18.5268C67.1354 17.9666 67.0585 17.6063 67.0585 16.9346C67.0585 16.3256 67.1154 16.0172 67.3263 15.4967C67.5801 14.8708 68.0607 14.2857 68.6253 13.9145C69.3608 13.4309 70.3711 13.2368 71.2934 13.4ZM31.4864 13.3871C32.7674 13.6797 33.7887 14.6817 34.1354 15.9883C34.2733 16.5068 34.2733 17.3635 34.1354 17.881C33.7887 19.1806 32.8124 20.1518 31.5113 20.4931C30.9927 20.6285 30.1313 20.6285 29.6117 20.4941C28.4905 20.2016 27.5312 19.3786 27.1195 18.3547C26.6669 17.2292 26.8068 15.8181 27.4633 14.8728C28.3626 13.5792 29.8765 13.0209 31.4864 13.3871ZM0.117188 7.96082C0.117188 7.97475 1.84093 12.0387 3.9474 16.9914C6.05387 21.944 7.77761 26.0179 7.77561 26.0448C7.77461 26.0727 7.15606 27.5454 6.40161 29.3187C5.64616 31.094 5.02861 32.5518 5.02861 32.5617C5.02861 32.5707 6.5555 32.5737 8.42214 32.5667L11.8157 32.5548L16.922 20.3031C19.7299 13.5652 22.0292 8.0255 22.0312 7.99366C22.0342 7.94788 21.3477 7.93793 18.6687 7.94788L15.3041 7.95982L13.2356 13.1811C12.0985 16.053 11.1582 18.3925 11.1452 18.3805C11.1322 18.3676 10.2038 16.0182 9.08166 13.1592L7.04015 7.95982L3.57867 7.94788C1.67505 7.94091 0.117188 7.94689 0.117188 7.96082ZM89.5286 7.5986C87.8049 7.82946 86.1691 8.5121 84.801 9.57388C84.3234 9.94405 83.441 10.8586 83.0903 11.3471C82.2149 12.5652 81.6433 13.9921 81.4145 15.5276C81.3056 16.2659 81.3046 17.5864 81.4125 18.3367C81.9911 22.3271 84.892 25.3731 88.8621 26.1592C89.6165 26.3075 90.0642 26.3483 90.9696 26.3483C92.7033 26.3483 94.1832 26.008 95.5982 25.2845C99.3445 23.367 101.272 19.2303 100.413 14.9504C99.6193 10.9999 96.4656 8.13396 92.3136 7.59163C91.6301 7.50307 90.2211 7.50606 89.5286 7.5986ZM69.1859 7.5986C67.4402 7.83245 65.6715 8.57977 64.3684 9.63757C61.8233 11.7014 60.5802 15.0141 61.0778 18.4094C61.6264 22.1619 64.2985 25.0985 68.0258 26.0478C68.8622 26.2607 69.6116 26.3483 70.6139 26.3483C72.3636 26.3483 73.6896 26.0498 75.1486 25.3293C77.8966 23.971 79.7232 21.4295 80.1719 18.3367C80.2798 17.5864 80.2788 16.2659 80.1689 15.5276C79.9411 13.9921 79.3695 12.5652 78.4941 11.3471C78.1434 10.8586 77.261 9.94405 76.7834 9.57388C75.3924 8.49419 73.7666 7.8225 71.9949 7.59462C71.2814 7.50307 69.8874 7.50506 69.1859 7.5986ZM28.3596 7.54984C26.9497 7.75682 25.8764 8.15188 24.8092 8.85442C22.6568 10.2714 21.1889 12.6686 20.7801 15.432C20.5913 16.7068 20.6722 18.3149 20.986 19.5498C21.7754 22.6505 23.8679 25.0228 26.6179 25.9344C27.6212 26.2667 27.9849 26.3214 29.217 26.3234C30.1104 26.3254 30.3772 26.3095 30.6999 26.2398C31.992 25.9582 32.9413 25.4696 33.7237 24.6835L34.1294 24.2765V25.0825V25.8866H37.2112H40.292V16.9118V7.93693H37.2112H34.1294V8.76287V9.5898L33.8396 9.28729C33.0982 8.5121 32.0949 7.97176 30.8388 7.67423C30.4211 7.57472 30.2213 7.55681 29.4259 7.54387C28.9162 7.53591 28.4366 7.53889 28.3596 7.54984ZM110.358 0.195039C110.185 0.592085 103.684 16.2431 103.684 16.2659C103.684 16.2789 105.387 16.2838 107.469 16.2769L111.255 16.2659L114.625 8.1668C116.48 3.71273 117.997 0.0527408 117.999 0.0338339C118 0.0149269 116.302 0 114.224 0H110.444L110.358 0.195039ZM42.3774 12.9433V25.8866H45.5751H48.7718V20.9529C48.7718 17.6909 48.7888 15.8958 48.8217 15.6569C48.8917 15.1494 49.0676 14.6598 49.3104 14.2966C49.7481 13.6409 50.3816 13.3453 51.246 13.3931C52.3622 13.4548 53.0197 14.1135 53.2185 15.3654C53.2485 15.5574 53.2665 17.5118 53.2665 20.7757L53.2675 25.8866H56.4642H59.6619V19.9229C59.6619 14.8947 59.6509 13.8638 59.5919 13.3612C59.382 11.573 58.7715 10.1889 57.7393 9.15693C56.8499 8.26731 55.7497 7.74289 54.3927 7.56377C53.8641 7.49312 52.529 7.53491 52.0624 7.63741C50.9072 7.88817 49.9989 8.37776 49.1775 9.19176L48.7258 9.63955V4.81928V0H45.5511H42.3774V12.9433Z" fill="#5A5A5A"/>
</svg>
